<?xml version="1.0" encoding="utf-8"?>
<!-- Svg Vector Icons : http://www.sfont.cn -->
<!DOCTYPE svg PUBLIC "-//W3C//DTD SVG 1.1//EN" "http://www.w3.org/Graphics/SVG/1.1/DTD/svg11.dtd">
<svg version="1.1" xmlns="http://www.w3.org/2000/svg" xmlns:xlink="http://www.w3.org/1999/xlink" x="0px" y="0px" viewBox="0 0 1000 1000" enable-background="new 0 0 1000 1000" xml:space="preserve">
<metadata> Svg Vector Icons : http://www.sfont.cn </metadata>
<g><g transform="translate(0.000000,512.000000) scale(0.100000,-0.100000)"><path d="M4533.5,5004.8C2846.7,4832.3,1386.1,3831.8,619.4,2323.3C-99.4,906.8-70.6-839.4,696.1-2229.1C1152.3-3057.1,1827-3731.8,2655-4188c513.7-283.7,1098.3-473.4,1744.3-565.4c226.2-32.6,981.4-32.6,1207.6,0c1146.2,162.9,2098.9,634.5,2879,1424.2c774.4,782,1228.7,1713.6,1389.7,2844.5c32.6,226.2,32.6,981.4,0,1207.6c-161,1134.7-628.7,2085.4-1405,2863.7C7711.5,4343.6,6781.9,4809.3,5693.1,4978C5453.5,5014.4,4778.8,5031.7,4533.5,5004.8z M5587.7,3137.9c1006.3-157.2,1665.7-630.6,1824.8-1305.3c46-205.1,46-617.2-1.9-793.5C7297.5,621.2,7067.5,375.8,6337.2-111c-178.3-116.9-360.4-249.2-406.4-291.4c-168.7-155.3-243.4-329.7-268.3-623l-13.4-159.1h-651.7h-651.7l13.4,168.7c30.7,410.2,90.1,695.8,174.4,837.6c78.6,136.1,350.8,373.8,661.3,582.7c281.8,187.8,509.9,368,609.5,479.2c78.6,86.3,157.2,274.1,168.7,406.4c30.7,322-157.2,676.6-419.8,791.6c-314.4,139.9-826.1,136.1-1117.5-7.7c-226.2-111.2-425.5-412.1-471.5-713l-24.9-149.5h-693.9h-695.8v44.1c0,23,13.4,124.6,26.8,224.3c76.7,507.9,302.9,925.8,653.6,1201.8c327.8,260.7,768.6,427.4,1282.3,484.9C4713.7,3191.6,5367.3,3174.3,5587.7,3137.9z M5750.6-2353.7v-594.2h-718.8h-718.8v594.2v594.2h718.8h718.8V-2353.7z"
fill="#de5959"/></g></g>
</svg>