<?xml version="1.0" encoding="utf-8"?>
<!-- Svg Vector Icons : http://www.sfont.cn -->
<!DOCTYPE svg PUBLIC "-//W3C//DTD SVG 1.1//EN" "http://www.w3.org/Graphics/SVG/1.1/DTD/svg11.dtd">
<svg version="1.1" xmlns="http://www.w3.org/2000/svg" xmlns:xlink="http://www.w3.org/1999/xlink" x="0px" y="0px" viewBox="0 0 1000 1000" enable-background="new 0 0 1000 1000" xml:space="preserve">
<metadata> Svg Vector Icons : http://www.sfont.cn </metadata>
<g><g><path d="M500.4,10.4c-0.1,0-0.3,0-0.4,0c-0.1,0-0.3,0-0.4,0C229.2,10.4,10,229.6,10,500c0,270.4,219.2,489.6,489.6,489.6c0.2,0,0.3,0,0.4,0c0.1,0,0.3,0,0.4,0C770.8,989.6,990,770.4,990,500C990,229.6,770.8,10.4,500.4,10.4z M500.4,849.4c-0.1,0-0.3,0-0.4,0c-0.1,0-0.3,0-0.4,0c-44.3,0-80.1-35.9-80.1-80.1c0-44.2,35.9-80.1,80.1-80.1c0.2,0,0.3,0,0.4,0c0.1,0,0.3,0,0.4,0c44.2,0,80.2,35.9,80.2,80.1C580.6,813.5,544.7,849.4,500.4,849.4z M615.3,238.8c-5.2,80-41.8,317.8-41.8,317.8c0,40.1-32.9,72.6-73,72.6c-0.2,0-0.4,0-0.6,0c-0.2,0-0.4,0-0.6,0c-40.1,0-72.9-32.5-72.9-72.6c0,0-36.5-237.8-41.8-317.8c-2.6-40,28.1-114.4,114.7-114.4c0.2,0,0.4,0,0.6,0c0.2,0,0.4,0,0.6,0C587.3,124.4,618,198.7,615.3,238.8z"
fill="#F4C600"/></g><g></g><g></g><g></g><g></g><g></g><g></g><g></g><g></g><g></g><g></g><g></g><g></g><g></g><g></g><g></g></g>
</svg>