<?xml version="1.0" encoding="utf-8"?>
<!-- Svg Vector Icons : http://www.sfont.cn -->
<!DOCTYPE svg PUBLIC "-//W3C//DTD SVG 1.1//EN" "http://www.w3.org/Graphics/SVG/1.1/DTD/svg11.dtd">
<svg version="1.1" xmlns="http://www.w3.org/2000/svg" xmlns:xlink="http://www.w3.org/1999/xlink" x="0px" y="0px" viewBox="0 0 1000 1000" enable-background="new 0 0 1000 1000" xml:space="preserve">
<metadata> Svg Vector Icons : http://www.sfont.cn </metadata>
<g><g transform="translate(0.000000,512.000000) scale(0.100000,-0.100000)"><path d="M4563.2,5002.6c-902.4-80.4-1781.8-421.5-2527-977.1c-241.4-180.1-762.5-701.2-942.6-942.6c-285.5-383.2-542.2-852.6-701.2-1285.6C168.2,1190,64.7,450.5,110.7-193.2c49.8-693.5,193.5-1237.7,492.4-1843.1c264.4-538.4,498.1-864,938.8-1302.8c438.7-440.6,764.4-674.4,1302.8-938.8c605.4-298.9,1149.5-442.6,1843.1-492.4c511.5-36.4,1009.6,11.5,1549.9,147.5c1151.4,293.1,2189.8,1040.3,2864.2,2059.6c157.1,235.6,408.1,733.8,505.8,1003.9c224.2,611.2,327.6,1346.9,281.6,1988.7c-49.8,695.4-193.5,1239.5-492.4,1845c-264.4,538.3-498.1,864-938.8,1302.8c-438.7,440.6-764.4,674.4-1302.8,938.8c-346.8,170.5-582.4,258.6-917.7,344.9C5666.7,5006.4,5120.7,5052.4,4563.2,5002.6z M6245.3,2339.5c157.1-24.9,243.3-63.2,465.5-206.9l178.2-116.9l187.8,59.4c103.4,30.7,252.9,88.1,331.4,124.5c80.5,36.4,149.4,61.3,153.3,57.5c26.8-26.8-103.5-243.3-249.1-411.9c-149.4-174.3-126.5-187.8,172.4-95.8c109.2,34.5,203.1,55.6,208.8,49.8c19.2-19.2-74.7-132.2-281.6-348.7c-101.6-105.4-191.6-208.8-203.1-229.9c-11.5-21.1-24.9-126.5-32.6-231.8C7147.7,569.3,6981-55.3,6808.6-379.1c-325.7-611.2-814.2-1115-1344.9-1387.1c-808.5-411.9-1802.8-461.7-2624.7-134.1c-243.3,95.8-511.5,226.1-528.8,254.8c-15.3,23,55.6,40.3,185.8,40.3c289.3,0,636.1,65.1,889,164.8c143.7,55.6,465.6,231.8,465.6,254.8c0,7.7-49.8,28.7-109.2,47.9c-377.4,116.9-666.7,335.3-800.8,601.6c-84.3,166.7-74.7,176.3,197.3,176.3h183.9l-132.2,65.1c-268.2,128.4-502,348.7-597.8,563.3c-84.3,191.6-151.3,502-109.2,502c7.7,0,95.8-26.8,195.4-57.5c107.3-34.5,189.7-51.7,199.3-42.1s-15.3,55.6-61.3,111.1c-130.3,159-216.5,298.9-266.3,438.7c-40.2,113-47.9,168.6-47.9,354.4c-1.9,191.6,5.7,243.3,53.6,398.5c30.7,95.8,65.1,176.3,74.7,176.3c11.5,0,128.4-105.4,260.6-233.7c291.2-283.5,526.9-454.1,835.3-607.3c344.9-170.5,708.9-279.7,1078.6-320l118.8-13.4v210.7c0,365.9,88.1,590.1,325.7,831.5C5521.1,2293.6,5858.3,2402.8,6245.3,2339.5z"
fill="#de5959"/></g></g>
</svg>